<svg width="24" height="18" viewBox="0 0 24 18" fill="none" xmlns="http://www.w3.org/2000/svg">
<path fill-rule="evenodd" clip-rule="evenodd" d="M16.2684 15.94C16.8535 16.6886 17.5557 17.5356 17.5557 17.5356C21.8661 17.3977 23.524 14.5415 23.524 14.5415C23.524 8.19881 20.7154 3.05769 20.7154 3.05769C17.9067 0.930328 15.2346 0.989422 15.2346 0.989422L14.9616 1.30459C18.2773 2.32887 19.8182 3.8062 19.8182 3.8062C17.7897 2.68343 15.8003 2.13189 13.9473 1.91522C12.543 1.75763 11.1972 1.79703 10.0075 1.95461C9.90529 1.95461 9.81799 1.96962 9.71961 1.98654C9.70529 1.989 9.69074 1.99151 9.67588 1.99401C8.99322 2.0531 7.33535 2.30917 5.24838 3.23497C4.52671 3.56983 4.09762 3.8062 4.09762 3.8062C4.09762 3.8062 5.71648 2.25008 9.22728 1.22579L9.03223 0.989422C9.03223 0.989422 6.36013 0.930328 3.55149 3.05769C3.55149 3.05769 0.742859 8.19881 0.742859 14.5415C0.742859 14.5415 2.38123 17.3977 6.6917 17.5356C6.6917 17.5356 7.41337 16.6492 7.9985 15.9006C5.52144 15.1521 4.58523 13.5763 4.58523 13.5763C4.58523 13.5763 4.78027 13.7142 5.13135 13.9112C5.15085 13.9309 5.17036 13.9506 5.20937 13.9703C5.23862 13.99 5.26788 14.0047 5.29714 14.0195C5.32639 14.0343 5.35565 14.0491 5.38491 14.0688C5.87252 14.3445 6.36013 14.5612 6.80873 14.7385C7.60841 15.0536 8.56413 15.3688 9.67588 15.5855C11.1387 15.8613 12.8551 15.9597 14.7275 15.6052C15.6442 15.4476 16.5804 15.1718 17.5557 14.7582C18.2383 14.5021 18.999 14.1278 19.7987 13.596C19.7987 13.596 18.8234 15.2112 16.2684 15.94ZM6.49666 10.5232C6.49666 9.32159 7.37436 8.3367 8.48611 8.3367C9.59786 8.3367 10.4951 9.32159 10.4756 10.5232C10.4756 11.7247 9.59786 12.7096 8.48611 12.7096C7.39386 12.7096 6.49666 11.7247 6.49666 10.5232ZM13.6158 10.5232C13.6158 9.32159 14.4935 8.3367 15.6052 8.3367C16.717 8.3367 17.5947 9.32159 17.5947 10.5232C17.5947 11.7247 16.717 12.7096 15.6052 12.7096C14.513 12.7096 13.6158 11.7247 13.6158 10.5232Z" fill="white"/>
</svg>
