<svg width="25" height="25" viewBox="0 0 25 25" fill="none" xmlns="http://www.w3.org/2000/svg">
<g clip-path="url(#clip0_114_103)">
<path d="M12.5197 2.20953C15.794 2.20953 16.1818 2.22199 17.4749 2.28098C18.6705 2.33555 19.3198 2.53532 19.7519 2.7032C20.3243 2.92566 20.7328 3.19143 21.1619 3.62051C21.591 4.0496 21.8567 4.45814 22.0791 5.03048C22.2471 5.46263 22.4468 6.11193 22.5014 7.30747C22.5604 8.60057 22.5729 8.98837 22.5729 12.2627C22.5729 15.5369 22.5604 15.9247 22.5014 17.2178C22.4468 18.4134 22.2471 19.0627 22.0791 19.4948C21.8567 20.0672 21.591 20.4757 21.1619 20.9048C20.7328 21.3339 20.3243 21.5996 19.7519 21.822C19.3198 21.99 18.6705 22.1898 17.4749 22.2443C16.182 22.3033 15.7942 22.3158 12.5197 22.3158C9.24527 22.3158 8.85746 22.3033 7.56461 22.2443C6.36902 22.1898 5.71972 21.99 5.28762 21.822C4.71523 21.5996 4.30669 21.3339 3.87761 20.9048C3.44852 20.4757 3.18275 20.0672 2.96035 19.4948C2.79241 19.0627 2.59264 18.4134 2.53808 17.2178C2.47908 15.9247 2.46662 15.5369 2.46662 12.2627C2.46662 8.98837 2.47908 8.60057 2.53808 7.30752C2.59264 6.11193 2.79241 5.46263 2.96035 5.03048C3.18275 4.45814 3.44852 4.0496 3.87761 3.62051C4.30669 3.19143 4.71523 2.92566 5.28762 2.7032C5.71972 2.53532 6.36902 2.33555 7.56457 2.28098C8.85766 2.22199 9.24547 2.20953 12.5197 2.20953ZM12.5197 0C9.18939 0 8.77184 0.0141162 7.4639 0.0737937C6.15864 0.133374 5.26727 0.340639 4.48723 0.643796C3.68086 0.957176 2.997 1.37648 2.31528 2.05819C1.63357 2.73991 1.21427 3.42376 0.900889 4.23014C0.597731 5.01018 0.390466 5.90155 0.330886 7.20681C0.271209 8.5147 0.257141 8.9323 0.257141 12.2627C0.257141 15.593 0.271209 16.0106 0.330886 17.3185C0.390466 18.6238 0.597731 19.5151 0.900889 20.2952C1.21427 21.1015 1.63357 21.7854 2.31528 22.4671C2.997 23.1488 3.68086 23.5681 4.48723 23.8815C5.26727 24.1847 6.15864 24.3919 7.4639 24.4515C8.77184 24.5112 9.18939 24.5253 12.5197 24.5253C15.8501 24.5253 16.2677 24.5112 17.5756 24.4515C18.8808 24.3919 19.7722 24.1847 20.5523 23.8815C21.3586 23.5681 22.0425 23.1488 22.7242 22.4671C23.4059 21.7854 23.8252 21.1015 24.1386 20.2952C24.4418 19.5151 24.649 18.6238 24.7086 17.3185C24.7683 16.0106 24.7824 15.593 24.7824 12.2627C24.7824 8.9323 24.7683 8.5147 24.7086 7.20681C24.649 5.90155 24.4418 5.01018 24.1386 4.23014C23.8252 3.42376 23.4059 2.73991 22.7242 2.05819C22.0425 1.37648 21.3586 0.957176 20.5523 0.643796C19.7722 0.340639 18.8808 0.133374 17.5756 0.0737937C16.2677 0.0141162 15.8501 0 12.5197 0ZM12.5197 5.96561C9.042 5.96561 6.2227 8.78491 6.2227 12.2627C6.2227 15.7404 9.042 18.5597 12.5197 18.5597C15.9975 18.5597 18.8168 15.7404 18.8168 12.2627C18.8168 8.78491 15.9975 5.96561 12.5197 5.96561ZM12.5197 16.3502C10.2623 16.3502 8.43218 14.5201 8.43218 12.2627C8.43218 10.0052 10.2623 8.17509 12.5197 8.17509C14.7772 8.17509 16.6073 10.0052 16.6073 12.2627C16.6073 14.5201 14.7772 16.3502 12.5197 16.3502ZM20.5371 5.71682C20.5371 6.52952 19.8783 7.18836 19.0656 7.18836C18.2529 7.18836 17.594 6.52952 17.594 5.71682C17.594 4.90412 18.2529 4.24533 19.0656 4.24533C19.8783 4.24533 20.5371 4.90412 20.5371 5.71682Z" fill="white"/>
</g>
<defs>
<clipPath id="clip0_114_103">
<rect width="24.5253" height="24.5253" fill="white" transform="translate(0.257141)"/>
</clipPath>
</defs>
</svg>
