<svg width="36" height="36" viewBox="0 0 36 36" fill="none" xmlns="http://www.w3.org/2000/svg">
<path d="M12.3246 35.9378H4.43257C3.26045 35.9378 2.13632 35.4737 1.30751 34.6475C0.478687 33.8212 0.0130615 32.7006 0.0130615 31.5321V23.6646C0.0130615 22.4961 0.478687 21.3754 1.30751 20.5492C2.13632 19.723 3.26045 19.2588 4.43257 19.2588H11.6932C12.1955 19.2588 12.6773 19.4577 13.0325 19.8119C13.3878 20.1659 13.5873 20.6462 13.5873 21.147C13.5873 21.4808 13.7203 21.801 13.9571 22.0371C14.1939 22.2731 14.5151 22.4058 14.85 22.4058H16.7441V24.9234H14.85C13.9565 24.9209 13.0926 24.6039 12.411 24.028C11.7294 23.4521 11.2739 22.6547 11.125 21.7764H4.43257C3.93024 21.7764 3.44847 21.9753 3.09326 22.3294C2.73805 22.6835 2.5385 23.1638 2.5385 23.6646V31.5321C2.5385 32.0328 2.73805 32.5131 3.09326 32.8673C3.44847 33.2213 3.93024 33.4203 4.43257 33.4203H12.3246C12.8269 33.4203 13.3086 33.2213 13.6639 32.8673C14.0191 32.5131 14.2187 32.0328 14.2187 31.5321V26.8115H16.7441V31.5321C16.7441 32.7006 16.2784 33.8212 15.4496 34.6475C14.6208 35.4737 13.4967 35.9378 12.3246 35.9378Z" fill="url(#paint0_linear_7_51)"/>
<path d="M31.5804 35.9378H23.6885C22.5164 35.9378 21.3922 35.4737 20.5634 34.6475C19.7346 33.8212 19.2689 32.7006 19.2689 31.5321V24.294C19.2689 23.7932 19.4685 23.3129 19.8237 22.9588C20.1789 22.6047 20.6607 22.4058 21.163 22.4058C21.4979 22.4058 21.8191 22.2731 22.0559 22.0371C22.2927 21.801 22.4258 21.4808 22.4258 21.147V19.2588H24.9512V21.147C24.9488 22.0377 24.6306 22.8989 24.053 23.5784C23.4754 24.2579 22.6753 24.712 21.7944 24.8604V31.5321C21.7944 32.0328 21.994 32.5131 22.3491 32.8673C22.7043 33.2213 23.1861 33.4203 23.6885 33.4203H31.5804C32.0828 33.4203 32.5646 33.2213 32.9198 32.8673C33.2749 32.5131 33.4745 32.0328 33.4745 31.5321V23.6646C33.4745 23.1638 33.2749 22.6835 32.9198 22.3294C32.5646 21.9753 32.0828 21.7764 31.5804 21.7764H26.8452V19.2588H31.5804C32.7525 19.2588 33.8767 19.723 34.7055 20.5492C35.5343 21.3754 36 22.4961 36 23.6646V31.5321C36 32.7006 35.5343 33.8212 34.7055 34.6475C33.8767 35.4737 32.7525 35.9378 31.5804 35.9378Z" fill="url(#paint1_linear_7_51)"/>
<path d="M31.5804 16.7411H24.3198C23.8175 16.7411 23.3357 16.5422 22.9805 16.188C22.6253 15.834 22.4258 15.3537 22.4258 14.8529C22.4258 14.5191 22.2927 14.1989 22.0559 13.9628C21.8191 13.7268 21.4979 13.5941 21.163 13.5941H19.2689V11.0765H21.163C22.0565 11.079 22.9204 11.396 23.602 11.9719C24.2836 12.5478 24.7391 13.3452 24.888 14.2235H31.5804C32.0828 14.2235 32.5646 14.0246 32.9198 13.6705C33.2749 13.3164 33.4745 12.8361 33.4745 12.3353V4.46781C33.4745 3.96703 33.2749 3.48676 32.9198 3.13265C32.5646 2.77855 32.0828 2.57961 31.5804 2.57961H23.6885C23.1861 2.57961 22.7043 2.77855 22.3491 3.13265C21.994 3.48676 21.7944 3.96703 21.7944 4.46781V9.18832H19.2689V4.46781C19.2689 3.29932 19.7346 2.17869 20.5634 1.35244C21.3922 0.526193 22.5164 0.0620117 23.6885 0.0620117H31.5804C32.7525 0.0620117 33.8767 0.526193 34.7055 1.35244C35.5343 2.17869 36 3.29932 36 4.46781V12.3353C36 13.5038 35.5343 14.6245 34.7055 15.4507C33.8767 16.2769 32.7525 16.7411 31.5804 16.7411Z" fill="url(#paint2_linear_7_51)"/>
<path d="M13.5873 16.7411H11.0618V14.8529C11.0643 13.9623 11.3823 13.101 11.96 12.4215C12.5376 11.742 13.3377 11.2879 14.2187 11.1395V4.46781C14.2187 3.96703 14.0191 3.48676 13.6639 3.13265C13.3086 2.77855 12.8269 2.57961 12.3246 2.57961H4.43257C3.93024 2.57961 3.44847 2.77855 3.09326 3.13265C2.73805 3.48676 2.5385 3.96703 2.5385 4.46781V12.3353C2.5385 12.8361 2.73805 13.3164 3.09326 13.6705C3.44847 14.0246 3.93024 14.2235 4.43257 14.2235H9.16777V16.7411H4.43257C3.26045 16.7411 2.13632 16.2769 1.30751 15.4507C0.478687 14.6245 0.0130615 13.5038 0.0130615 12.3353V4.46781C0.0130615 3.29932 0.478687 2.17869 1.30751 1.35244C2.13632 0.526193 3.26045 0.0620117 4.43257 0.0620117H12.3246C13.4967 0.0620117 14.6208 0.526193 15.4496 1.35244C16.2784 2.17869 16.7441 3.29932 16.7441 4.46781V11.7059C16.7441 12.2067 16.5445 12.687 16.1893 13.0411C15.8341 13.3952 15.3524 13.5941 14.85 13.5941C14.5151 13.5941 14.1939 13.7268 13.9571 13.9628C13.7203 14.1989 13.5873 14.5191 13.5873 14.8529V16.7411Z" fill="url(#paint3_linear_7_51)"/>
<defs>
<linearGradient id="paint0_linear_7_51" x1="8.37856" y1="19.2588" x2="8.37856" y2="35.9378" gradientUnits="userSpaceOnUse">
<stop stop-color="#EE84FF"/>
<stop offset="1" stop-color="#8F30EE"/>
</linearGradient>
<linearGradient id="paint1_linear_7_51" x1="27.6344" y1="19.2588" x2="27.6344" y2="35.9378" gradientUnits="userSpaceOnUse">
<stop stop-color="#EE84FF"/>
<stop offset="1" stop-color="#8F30EE"/>
</linearGradient>
<linearGradient id="paint2_linear_7_51" x1="27.6344" y1="0.0620117" x2="27.6344" y2="16.7411" gradientUnits="userSpaceOnUse">
<stop stop-color="#EE84FF"/>
<stop offset="1" stop-color="#8F30EE"/>
</linearGradient>
<linearGradient id="paint3_linear_7_51" x1="8.37856" y1="0.0620117" x2="8.37856" y2="16.7411" gradientUnits="userSpaceOnUse">
<stop stop-color="#EE84FF"/>
<stop offset="1" stop-color="#8F30EE"/>
</linearGradient>
</defs>
</svg>
