<svg width="22" height="23" viewBox="0 0 22 23" fill="none" xmlns="http://www.w3.org/2000/svg">
<g clip-path="url(#clip0_1068_106)">
<path d="M7.37674 22.1091H2.65307C1.9515 22.1091 1.27867 21.8312 0.78259 21.3367C0.286508 20.8422 0.0078125 20.1714 0.0078125 19.472V14.763C0.0078125 14.0636 0.286508 13.3929 0.78259 12.8983C1.27867 12.4038 1.9515 12.126 2.65307 12.126H6.99887C7.29951 12.126 7.58788 12.245 7.80046 12.457C8.01311 12.6689 8.13252 12.9564 8.13252 13.2561C8.13252 13.456 8.21215 13.6476 8.3539 13.7889C8.49564 13.9302 8.68788 14.0096 8.88831 14.0096H10.022V15.5164H8.88831C8.35353 15.515 7.83646 15.3252 7.4285 14.9805C7.02048 14.6358 6.74789 14.1585 6.65875 13.6329H2.65307C2.3524 13.6329 2.06404 13.7519 1.85143 13.9639C1.63883 14.1758 1.51939 14.4633 1.51939 14.763V19.472C1.51939 19.7718 1.63883 20.0592 1.85143 20.2712C2.06404 20.4831 2.3524 20.6022 2.65307 20.6022H7.37674C7.67744 20.6022 7.96574 20.4831 8.17839 20.2712C8.39097 20.0592 8.51045 19.7718 8.51045 19.472V16.6466H10.022V19.472C10.022 20.1714 9.74329 20.8422 9.24721 21.3367C8.75114 21.8312 8.07829 22.1091 7.37674 22.1091Z" fill="url(#paint0_linear_1068_106)"/>
<path d="M18.9021 22.1091H14.1785C13.4769 22.1091 12.8041 21.8312 12.308 21.3367C11.8119 20.8422 11.5332 20.1714 11.5332 19.472V15.1397C11.5332 14.84 11.6527 14.5525 11.8653 14.3406C12.0778 14.1286 12.3662 14.0096 12.6669 14.0096C12.8673 14.0096 13.0596 13.9302 13.2013 13.7889C13.3431 13.6476 13.4227 13.456 13.4227 13.2561V12.126H14.9343V13.2561C14.9328 13.7893 14.7424 14.3047 14.3967 14.7114C14.0509 15.1181 13.5721 15.3899 13.0448 15.4788V19.472C13.0448 19.7718 13.1642 20.0592 13.3768 20.2712C13.5894 20.4831 13.8778 20.6022 14.1785 20.6022H18.9021C19.2028 20.6022 19.4912 20.4831 19.7038 20.2712C19.9164 20.0592 20.0358 19.7718 20.0358 19.472V14.763C20.0358 14.4633 19.9164 14.1758 19.7038 13.9639C19.4912 13.7519 19.2028 13.6329 18.9021 13.6329H16.0679V12.126H18.9021C19.6037 12.126 20.2765 12.4038 20.7726 12.8983C21.2687 13.3929 21.5474 14.0636 21.5474 14.763V19.472C21.5474 20.1714 21.2687 20.8422 20.7726 21.3367C20.2765 21.8312 19.6037 22.1091 18.9021 22.1091Z" fill="url(#paint1_linear_1068_106)"/>
<path d="M18.9021 10.6189H14.5563C14.2557 10.6189 13.9673 10.4998 13.7548 10.2878C13.5421 10.0759 13.4227 9.78843 13.4227 9.48869C13.4227 9.28887 13.3431 9.09723 13.2013 8.95591C13.0596 8.81464 12.8673 8.73526 12.6669 8.73526H11.5332V7.22838H12.6669C13.2017 7.22982 13.7188 7.4196 14.1267 7.7643C14.5347 8.109 14.8073 8.58629 14.8965 9.11197H18.9021C19.2028 9.11197 19.4912 8.99292 19.7038 8.78094C19.9164 8.56902 20.0358 8.28156 20.0358 7.98182V3.27279C20.0358 2.97305 19.9164 2.68559 19.7038 2.47364C19.4912 2.2617 19.2028 2.14263 18.9021 2.14263H14.1785C13.8778 2.14263 13.5894 2.2617 13.3768 2.47364C13.1642 2.68559 13.0448 2.97305 13.0448 3.27279V6.0982H11.5332V3.27279C11.5332 2.5734 11.8119 1.90266 12.308 1.40812C12.8041 0.913573 13.4769 0.635742 14.1785 0.635742H18.9021C19.6037 0.635742 20.2765 0.913573 20.7726 1.40812C21.2687 1.90266 21.5474 2.5734 21.5474 3.27279V7.98182C21.5474 8.68121 21.2687 9.35195 20.7726 9.84651C20.2765 10.341 19.6037 10.6189 18.9021 10.6189Z" fill="url(#paint2_linear_1068_106)"/>
<path d="M8.1324 10.6189H6.62083V9.48869C6.62227 8.95561 6.81265 8.44009 7.15843 8.0334C7.50415 7.62671 7.98301 7.35489 8.51032 7.26606V3.27279C8.51032 2.97305 8.39085 2.68559 8.17826 2.47364C7.96562 2.2617 7.67732 2.14263 7.37661 2.14263H2.65294C2.35228 2.14263 2.06392 2.2617 1.85131 2.47364C1.63871 2.68559 1.51926 2.97305 1.51926 3.27279V7.98182C1.51926 8.28156 1.63871 8.56902 1.85131 8.78094C2.06392 8.99292 2.35228 9.11197 2.65294 9.11197H5.48715V10.6189H2.65294C1.95138 10.6189 1.27855 10.341 0.782468 9.84651C0.286386 9.35195 0.00769043 8.68121 0.00769043 7.98182V3.27279C0.00769043 2.5734 0.286386 1.90266 0.782468 1.40812C1.27855 0.913573 1.95138 0.635742 2.65294 0.635742H7.37661C8.07817 0.635742 8.75102 0.913573 9.24709 1.40812C9.74316 1.90266 10.0219 2.5734 10.0219 3.27279V7.6051C10.0219 7.90484 9.90242 8.1923 9.68984 8.40422C9.47719 8.6162 9.18889 8.73526 8.88819 8.73526C8.68776 8.73526 8.49552 8.81464 8.35377 8.95591C8.21203 9.09723 8.1324 9.28887 8.1324 9.48869V10.6189Z" fill="url(#paint3_linear_1068_106)"/>
</g>
<defs>
<linearGradient id="paint0_linear_1068_106" x1="5.0149" y1="12.126" x2="5.0149" y2="22.1091" gradientUnits="userSpaceOnUse">
<stop stop-color="#EE84FF"/>
<stop offset="1" stop-color="#8F30EE"/>
</linearGradient>
<linearGradient id="paint1_linear_1068_106" x1="16.5403" y1="12.126" x2="16.5403" y2="22.1091" gradientUnits="userSpaceOnUse">
<stop stop-color="#EE84FF"/>
<stop offset="1" stop-color="#8F30EE"/>
</linearGradient>
<linearGradient id="paint2_linear_1068_106" x1="16.5403" y1="0.635742" x2="16.5403" y2="10.6189" gradientUnits="userSpaceOnUse">
<stop stop-color="#EE84FF"/>
<stop offset="1" stop-color="#8F30EE"/>
</linearGradient>
<linearGradient id="paint3_linear_1068_106" x1="5.01478" y1="0.635742" x2="5.01478" y2="10.6189" gradientUnits="userSpaceOnUse">
<stop stop-color="#EE84FF"/>
<stop offset="1" stop-color="#8F30EE"/>
</linearGradient>
<clipPath id="clip0_1068_106">
<rect width="21.5474" height="21.5474" fill="white" transform="translate(0 0.598633)"/>
</clipPath>
</defs>
</svg>
