<svg width="23" height="22" viewBox="0 0 23 22" fill="none" xmlns="http://www.w3.org/2000/svg">
<path fill-rule="evenodd" clip-rule="evenodd" d="M0.78241 0.525391H22.2572V22.0001H0.78241V0.525391ZM5.72522 7.23609C5.85746 7.35528 5.92499 7.53034 5.90706 7.70737V14.0837C5.9463 14.3138 5.87379 14.5487 5.71175 14.7167L4.19634 16.5549V16.7973H8.49335V16.5549L6.97795 14.7167C6.81471 14.5491 6.73771 14.3156 6.76916 14.0837V8.56925L10.5408 16.7973H10.9786L14.2182 8.56925V15.1274C14.2182 15.3025 14.2182 15.3361 14.1037 15.4506L12.9385 16.5818V16.8242H18.596V16.5818L17.4713 15.4775C17.372 15.4018 17.3227 15.2775 17.3433 15.1544V7.04079C17.3227 6.91766 17.372 6.79331 17.4713 6.71762L18.623 5.61334V5.37094H14.6358L11.7936 12.4611L8.5607 5.37094H4.37819V5.61334L5.72522 7.23609Z" fill="white"/>
</svg>
