<svg width="19" height="21" viewBox="0 0 19 21" fill="none" xmlns="http://www.w3.org/2000/svg">
<path fill-rule="evenodd" clip-rule="evenodd" d="M17.742 4.71948V5.43732C18.0674 5.50612 18.3992 5.54074 18.7319 5.54061V8.91317C16.9743 8.91317 15.3468 8.35605 14.0183 7.40928V7.40919H14.0182L14.0183 7.40928V14.2914C14.0183 17.7344 11.219 20.5253 7.76593 20.5253C6.0145 20.5253 4.4314 19.8073 3.2961 18.6501L3.29575 18.6499C3.29555 18.6497 3.29536 18.6495 3.29517 18.6493C1.62382 17.5303 0.524002 15.6284 0.524002 13.4704C0.524002 10.0278 3.32318 7.23688 6.77639 7.23688C7.06333 7.23673 7.34994 7.25611 7.63423 7.29488V8.0591C7.63419 8.0591 7.63415 8.0591 7.63411 8.0591L7.63423 8.0591C7.96506 8.05211 8.29593 8.0711 8.62377 8.11589V11.5638C8.34318 11.475 8.05057 11.43 7.75622 11.4302C6.17662 11.4302 4.89623 12.7069 4.89623 14.2816C4.89531 14.9053 5.40982 15.7144 5.40982 15.7144C5.82253 16.1442 6.34977 16.3121 6.76619 16.3121C8.34252 16.3121 9.6206 15.0406 9.62606 13.4704V0H13.0283V0.433755C13.0403 0.56349 13.0576 0.692683 13.0801 0.82101L14.0182 0.821008V1.25476C14.1147 2.31142 14.5604 3.26721 15.2394 4.00672C15.2543 4.02295 15.2693 4.03908 15.2844 4.0551C15.2693 4.03905 15.2543 4.02288 15.2394 4.0066C15.99 4.47377 16.8572 4.72081 17.742 4.71948Z" fill="white"/>
</svg>
