<svg width="22" height="18" viewBox="0 0 22 18" fill="none" xmlns="http://www.w3.org/2000/svg">
<path d="M21.2571 2.89755C20.502 3.2328 19.6904 3.45858 18.8386 3.56035C19.7083 3.03952 20.3763 2.21423 20.6901 1.23073C19.8768 1.71307 18.9754 2.06371 18.0159 2.25272C17.2487 1.43427 16.1532 0.922852 14.9422 0.922852C12.2235 0.922852 10.2257 3.45943 10.8397 6.09265C7.34103 5.91733 4.23829 4.2411 2.16097 1.6934C1.05773 3.586 1.58882 6.06186 3.46346 7.31561C2.77416 7.29338 2.12419 7.10437 1.55718 6.7888C1.511 8.73955 2.90928 10.5646 4.93444 10.9708C4.34177 11.1316 3.69266 11.1692 3.03243 11.0427C3.5678 12.7155 5.12259 13.9324 6.96644 13.9666C5.19614 15.3547 2.96573 15.9747 0.731895 15.7113C2.59542 16.906 4.80958 17.603 7.18709 17.603C15.0055 17.603 19.4227 10.9999 19.1559 5.0775C19.9786 4.48313 20.6927 3.74165 21.2571 2.89755Z" fill="white"/>
</svg>
