<svg width="23" height="18" viewBox="0 0 23 18" fill="none" xmlns="http://www.w3.org/2000/svg">
<path fill-rule="evenodd" clip-rule="evenodd" d="M21.5434 2.0642C21.885 2.44113 22.1312 2.91023 22.2574 3.42478C22.984 6.65198 22.8161 11.7489 22.2715 15.1006C22.1453 15.6152 21.8991 16.0843 21.5575 16.4612C21.2159 16.8381 20.7907 17.1097 20.3244 17.249C18.6171 17.7627 11.7458 17.7627 11.7458 17.7627C11.7458 17.7627 4.87455 17.7627 3.16732 17.249C2.70097 17.1097 2.27581 16.8381 1.93419 16.4612C1.59257 16.0843 1.34641 15.6152 1.22022 15.1006C0.489349 11.8874 0.689703 6.78742 1.20611 3.44035C1.3323 2.9258 1.57846 2.4567 1.92008 2.07977C2.2617 1.70284 2.68686 1.43124 3.15321 1.292C4.86045 0.778263 11.7317 0.762695 11.7317 0.762695C11.7317 0.762695 18.603 0.762695 20.3103 1.27643C20.7766 1.41567 21.2018 1.68727 21.5434 2.0642ZM15.245 9.26273L9.54476 12.9056V5.61987L15.245 9.26273Z" fill="white"/>
</svg>
